<?xml version="1.0" encoding="UTF-8" standalone="no"?>
<!-- Created with Inkscape (http://www.inkscape.org/) -->

<svg
   width="158.31157mm"
   height="158.31157mm"
   viewBox="0 0 158.31157 158.31157"
   version="1.1"
   id="svg1"
   inkscape:version="1.3.1 (9b9bdc1480, 2023-11-25, custom)"
   sodipodi:docname="favicon.svg"
   xmlns:inkscape="http://www.inkscape.org/namespaces/inkscape"
   xmlns:sodipodi="http://sodipodi.sourceforge.net/DTD/sodipodi-0.dtd"
   xmlns="http://www.w3.org/2000/svg"
   xmlns:svg="http://www.w3.org/2000/svg">
  <sodipodi:namedview
     id="namedview1"
     pagecolor="#ffffff"
     bordercolor="#000000"
     borderopacity="0.25"
     inkscape:showpageshadow="2"
     inkscape:pageopacity="0.0"
     inkscape:pagecheckerboard="0"
     inkscape:deskcolor="#d1d1d1"
     inkscape:document-units="mm"
     inkscape:zoom="0.9008212"
     inkscape:cx="535.06734"
     inkscape:cy="445.14938"
     inkscape:window-width="1850"
     inkscape:window-height="1016"
     inkscape:window-x="0"
     inkscape:window-y="0"
     inkscape:window-maximized="1"
     inkscape:current-layer="layer1" />
  <defs
     id="defs1" />
  <g
     inkscape:label="Layer 1"
     inkscape:groupmode="layer"
     id="layer1"
     transform="translate(-1.5042222,-35.460117)">
    <rect
       style="opacity:1;fill:#000000;fill-opacity:1;stroke-width:0.974282"
       id="rect3"
       width="159.10666"
       height="158.74754"
       x="1.1066773"
       y="35.24213" />
    <g
       id="Layer1001"
       transform="matrix(0.24045526,0,0,0.24045526,1.5366405,76.412382)">
      <path
         d="m 548.2655,270.586 v 2.1866 h -90.604 c -17.3918,0 -32.6484,-1.8748 -45.7183,-5.6759 -13.0699,-3.7488 -26.3994,-10.8825 -39.9387,-21.4532 -13.5898,-10.5185 -24.5768,-23.6398 -32.9609,-39.3135 -8.3833,-15.6736 -12.6006,-31.7113 -12.6006,-48.1138 0,-17.9648 5.2588,-35.825 15.7773,-53.633 10.5707,-17.8089 25.5146,-32.3366 44.9894,-43.4794 19.4225,-11.1438 41.4487,-16.7152 66.0786,-16.7152 22.0775,0 45.4056,4.9471 70.0355,14.7881 l 9.3203,26.1398 h -2.083 c -7.8625,-9.9977 -18.5369,-18.2764 -32.1276,-24.838 -13.5907,-6.5606 -28.7436,-9.841 -45.4056,-9.841 -29.004,0 -52.8005,10.8825 -71.286,32.7006 -18.5369,21.7658 -27.8058,48.7904 -27.8058,81.127 0,13.3817 1.51,25.3579 4.5822,35.8764 3.0722,10.5185 8.7481,20.8811 17.1837,31.0869 8.3832,10.2059 17.3917,17.7035 26.9732,22.547 9.6329,4.7903 20.4117,8.1751 32.2834,10.0491 11.9249,1.8748 21.4019,2.7082 28.3788,2.4992 l 12.0807,-0.3117 c 13.6429,-0.5208 22.1298,-1.7704 25.5669,-3.8011 3.3848,-2.0316 5.1029,-7.2382 5.1029,-15.5701 v -34.0024 c 0,-6.6129 -1.3541,-11.0383 -4.1137,-13.3294 -2.7596,-2.2911 -6.7174,-3.2812 -11.8203,-2.9686 v -2.1866 h 58.1116 v 2.1866 c -6.4571,0 -10.8311,1.2496 -12.9655,3.8011 -2.1875,2.5514 -3.2803,7.4462 -3.2803,14.6844 v 35.5124 c 0,7.1336 0.937,12.2888 2.8118,15.361 1.874,3.1245 5.3111,4.6867 10.2573,4.6867 z"
         style="fill:#f9f9f9;fill-rule:evenodd"
         id="path1" />
      <path
         d="m 109.8475,48.737 v -2.1866 h 63.6307 c 16.1422,0 27.8058,0.364 35.0439,1.0929 7.1859,0.6774 14.5799,3.0722 22.1307,7.0822 7.5499,4.0092 13.2781,9.4248 17.1314,16.2981 3.8533,6.8732 5.7795,15.3088 5.7795,25.2542 0,11.4041 -3.437,22.2866 -10.3103,32.597 -6.8733,10.3617 -16.5584,19.0576 -29.1076,26.1912 l 15.8818,24.3696 c 3.4884,6.0921 12.6537,19.4747 27.5453,40.0946 14.8926,20.6198 26.4526,33.2213 34.5754,37.6998 8.1229,4.53 15.9863,6.7688 23.6407,6.7688 7.4977,0 16.1413,-2.9155 25.8787,-8.7481 l 0.9378,3.0722 c -12.1852,10.05 -28.0147,15.0484 -47.4895,15.0484 -12.9654,0 -24.1605,-3.8524 -33.4816,-11.5591 -9.3203,-7.7066 -25.6183,-28.8481 -48.8427,-63.3704 -0.2082,-0.209 -0.3118,-0.4171 -0.3118,-0.6252 l -22.6514,-34.7313 -19.9432,0.6244 h -18.1729 v 85.9173 c 0,6.9255 0.8856,11.8726 2.7082,14.8925 1.8226,2.9677 6.248,4.4786 13.2258,4.4786 v 2.1866 h -57.7989 v -2.1866 c 7.1336,-0.3126 11.5599,-1.8226 13.278,-4.5831 1.7704,-2.7595 2.656,-8.331 2.656,-16.7665 V 69.0451 c 0,-5.8327 -0.7289,-10.623 -2.2389,-14.4241 -1.5108,-3.801 -6.093,-5.7795 -13.6951,-5.884 z m 41.8649,4.0614 v 104.9759 h 23.4848 c 18.5369,0 32.2312,-4.3741 41.1874,-13.07 8.9563,-8.6959 13.4348,-20.1513 13.4348,-34.315 0,-13.7988 -4.374,-26.8165 -13.1744,-39.1576 -8.7995,-12.2889 -24.3164,-18.4333 -46.4994,-18.4333 z"
         style="fill:#cf003c;fill-rule:evenodd"
         id="path2" />
    </g>
  </g>
</svg>
