<?xml version="1.0" encoding="UTF-8" standalone="no"?>
<svg
   version="1.1"
   width="641.76172pt"
   height="623.67297pt"
   id="svg3"
   viewBox="0 0 641.76171 623.67299"
   sodipodi:docname="logo_dark_auto.svg"
   inkscape:version="1.3.1 (9b9bdc1480, 2023-11-25, custom)"
   xml:space="preserve"
   xmlns:inkscape="http://www.inkscape.org/namespaces/inkscape"
   xmlns:sodipodi="http://sodipodi.sourceforge.net/DTD/sodipodi-0.dtd"
   xmlns="http://www.w3.org/2000/svg"
   xmlns:svg="http://www.w3.org/2000/svg"><defs
     id="defs3"><rect
       x="207.72237"
       y="655.36627"
       width="241.4425"
       height="61.757725"
       id="rect1" /></defs><sodipodi:namedview
     id="namedview3"
     pagecolor="#ffffff"
     bordercolor="#000000"
     borderopacity="0.25"
     inkscape:showpageshadow="2"
     inkscape:pageopacity="0.0"
     inkscape:pagecheckerboard="0"
     inkscape:deskcolor="#d1d1d1"
     inkscape:zoom="0.33708934"
     inkscape:cx="148.32863"
     inkscape:cy="406.42045"
     inkscape:window-width="1850"
     inkscape:window-height="1016"
     inkscape:window-x="0"
     inkscape:window-y="0"
     inkscape:window-maximized="1"
     inkscape:current-layer="g3"
     inkscape:document-units="pt" /><g
     id="Layer1000"
     transform="translate(-4.458878,64.644699)"><g
       id="g3"><g
         id="Layer1001"
         transform="translate(-3.000002,19.5)"><path
           d="m 548.2655,270.586 v 2.1866 h -90.604 c -17.3918,0 -32.6484,-1.8748 -45.7183,-5.6759 -13.0699,-3.7488 -26.3994,-10.8825 -39.9387,-21.4532 -13.5898,-10.5185 -24.5768,-23.6398 -32.9609,-39.3135 -8.3833,-15.6736 -12.6006,-31.7113 -12.6006,-48.1138 0,-17.9648 5.2588,-35.825 15.7773,-53.633 10.5707,-17.8089 25.5146,-32.3366 44.9894,-43.4794 19.4225,-11.1438 41.4487,-16.7152 66.0786,-16.7152 22.0775,0 45.4056,4.9471 70.0355,14.7881 l 9.3203,26.1398 h -2.083 c -7.8625,-9.9977 -18.5369,-18.2764 -32.1276,-24.838 -13.5907,-6.5606 -28.7436,-9.841 -45.4056,-9.841 -29.004,0 -52.8005,10.8825 -71.286,32.7006 -18.5369,21.7658 -27.8058,48.7904 -27.8058,81.127 0,13.3817 1.51,25.3579 4.5822,35.8764 3.0722,10.5185 8.7481,20.8811 17.1837,31.0869 8.3832,10.2059 17.3917,17.7035 26.9732,22.547 9.6329,4.7903 20.4117,8.1751 32.2834,10.0491 11.9249,1.8748 21.4019,2.7082 28.3788,2.4992 l 12.0807,-0.3117 c 13.6429,-0.5208 22.1298,-1.7704 25.5669,-3.8011 3.3848,-2.0316 5.1029,-7.2382 5.1029,-15.5701 v -34.0024 c 0,-6.6129 -1.3541,-11.0383 -4.1137,-13.3294 -2.7596,-2.2911 -6.7174,-3.2812 -11.8203,-2.9686 v -2.1866 h 58.1116 v 2.1866 c -6.4571,0 -10.8311,1.2496 -12.9655,3.8011 -2.1875,2.5514 -3.2803,7.4462 -3.2803,14.6844 v 35.5124 c 0,7.1336 0.937,12.2888 2.8118,15.361 1.874,3.1245 5.3111,4.6867 10.2573,4.6867 z"
           style="fill:#f9f9f9;fill-rule:evenodd"
           id="path1" /><path
           d="m 109.8475,48.737 v -2.1866 h 63.6307 c 16.1422,0 27.8058,0.364 35.0439,1.0929 7.1859,0.6774 14.5799,3.0722 22.1307,7.0822 7.5499,4.0092 13.2781,9.4248 17.1314,16.2981 3.8533,6.8732 5.7795,15.3088 5.7795,25.2542 0,11.4041 -3.437,22.2866 -10.3103,32.597 -6.8733,10.3617 -16.5584,19.0576 -29.1076,26.1912 l 15.8818,24.3696 c 3.4884,6.0921 12.6537,19.4747 27.5453,40.0946 14.8926,20.6198 26.4526,33.2213 34.5754,37.6998 8.1229,4.53 15.9863,6.7688 23.6407,6.7688 7.4977,0 16.1413,-2.9155 25.8787,-8.7481 l 0.9378,3.0722 c -12.1852,10.05 -28.0147,15.0484 -47.4895,15.0484 -12.9654,0 -24.1605,-3.8524 -33.4816,-11.5591 -9.3203,-7.7066 -25.6183,-28.8481 -48.8427,-63.3704 -0.2082,-0.209 -0.3118,-0.4171 -0.3118,-0.6252 l -22.6514,-34.7313 -19.9432,0.6244 h -18.1729 v 85.9173 c 0,6.9255 0.8856,11.8726 2.7082,14.8925 1.8226,2.9677 6.248,4.4786 13.2258,4.4786 v 2.1866 h -57.7989 v -2.1866 c 7.1336,-0.3126 11.5599,-1.8226 13.278,-4.5831 1.7704,-2.7595 2.656,-8.331 2.656,-16.7665 V 69.0451 c 0,-5.8327 -0.7289,-10.623 -2.2389,-14.4241 -1.5108,-3.801 -6.093,-5.7795 -13.6951,-5.884 z m 41.8649,4.0614 v 104.9759 h 23.4848 c 18.5369,0 32.2312,-4.3741 41.1874,-13.07 8.9563,-8.6959 13.4348,-20.1513 13.4348,-34.315 0,-13.7988 -4.374,-26.8165 -13.1744,-39.1576 -8.7995,-12.2889 -24.3164,-18.4333 -46.4994,-18.4333 z"
           style="fill:#cf003c;fill-rule:evenodd"
           id="path2" /></g><path
         d="m 192.02289,391.63114 v 18.38099 h 5.87554 c 2.56606,0 4.75508,-0.89392 6.57598,-2.6906 1.82085,-1.79576 2.73534,-3.96963 2.73534,-6.5074 0,-2.54485 -0.91449,-4.71074 -2.73534,-6.49946 -1.8209,-1.78873 -4.00992,-2.68353 -6.57598,-2.68353 z m 6.45773,20.30047 c -0.1845,0.0151 -0.38334,0.0221 -0.58219,0.0221 h -5.87554 v 11.82237 h -1.93912 v -34.08553 h 9.06768 c 2.63238,0.35596 4.87334,1.44686 6.71659,3.26385 2.20425,2.17474 3.30323,4.79199 3.30323,7.85978 0,3.08368 -1.09898,5.70802 -3.30323,7.88188 -1.52619,1.50516 -3.27364,2.4945 -5.24945,2.9591 l 7.96961,12.12092 h -2.39591 z m 13.56571,8.33232 c 0.53114,0 0.98793,0.18197 1.37128,0.55299 0.37617,0.37098 0.56785,0.81442 0.56785,1.33732 0,0.54591 -0.19168,0.99641 -0.56785,1.36739 -0.38335,0.37099 -0.84014,0.55208 -1.37128,0.55208 -0.5383,0 -0.99507,-0.18109 -1.37127,-0.55208 -0.38334,-0.37098 -0.57502,-0.82148 -0.57502,-1.36739 0,-0.5229 0.19168,-0.96634 0.57502,-1.33732 0.3762,-0.37102 0.83297,-0.55299 1.37127,-0.55299 z m 38.39621,-30.57345 v 1.91943 h -15.33463 v 14.16319 h 15.33463 v 1.91942 h -15.33463 v 14.16404 h 15.33463 v 1.91947 H 233.1688 v -34.08555 z m 6.0305,30.57345 c 0.53115,0 0.98794,0.18197 1.37129,0.55299 0.37617,0.37098 0.56783,0.81442 0.56783,1.33732 0,0.54591 -0.19166,0.99641 -0.56783,1.36739 -0.38335,0.37099 -0.84014,0.55208 -1.37129,0.55208 -0.5383,0 -0.99506,-0.18109 -1.37127,-0.55208 -0.38333,-0.37098 -0.57501,-0.82148 -0.57501,-1.36739 0,-0.5229 0.19168,-0.96634 0.57501,-1.33732 0.37621,-0.37102 0.83297,-0.55299 1.37127,-0.55299 z m 23.06158,-28.56742 v 30.10176 h 0.15405 c 5.12407,0 9.06141,-1.36649 11.81109,-4.09329 3.06674,-3.02449 4.60017,-6.68233 4.60017,-10.97172 0,-4.27529 -1.53343,-7.93309 -4.60017,-10.97173 -2.74968,-2.71268 -6.68702,-4.06502 -11.81109,-4.06502 z m 0,-1.96274 h 0.15405 c 5.68478,0 10.09321,1.54843 13.21907,4.64627 3.451,3.42462 5.18323,7.54 5.18323,12.35322 0,4.82733 -1.73223,8.95067 -5.18323,12.35322 -3.12586,3.09693 -7.53429,4.64627 -13.21907,4.64627 h -0.15405 v 0.0433 h -1.93912 v -34.08554 h 1.93912 z m 22.40501,30.53016 c 0.53113,0 0.98792,0.18197 1.37127,0.55299 0.37617,0.37098 0.56783,0.81442 0.56783,1.33732 0,0.54591 -0.19166,0.99641 -0.56783,1.36739 -0.38335,0.37099 -0.84014,0.55208 -1.37127,0.55208 -0.53832,0 -0.99507,-0.18109 -1.37129,-0.55208 -0.38334,-0.37098 -0.575,-0.82148 -0.575,-1.36739 0,-0.5229 0.19166,-0.96634 0.575,-1.33732 0.37622,-0.37102 0.83297,-0.55299 1.37129,-0.55299 z m 65.32792,-0.72694 c -3.28082,3.09778 -7.20293,4.64622 -11.76634,4.64622 -4.8957,0 -9.06859,-1.70126 -12.51867,-5.10381 -3.4501,-3.40345 -5.17518,-7.51881 -5.17518,-12.34614 0,-4.81322 1.72508,-8.92156 5.17518,-12.33203 3.45008,-3.40962 7.62297,-5.1109 12.51867,-5.1109 4.56341,0 8.53031,1.51225 11.8989,4.53672 l -1.46708,1.31614 c -2.97094,-2.59606 -6.44344,-3.89719 -10.43182,-3.89719 -4.33499,0 -8.0359,1.51224 -11.10352,4.53672 -3.06678,3.02539 -4.60015,6.67525 -4.60015,10.95054 0,4.28939 1.53337,7.94723 4.60015,10.97172 3.06762,3.02448 6.76853,4.53672 11.10352,4.53672 3.71522,0 6.98886,-1.12711 9.82722,-3.38844 v -10.38961 h 1.93912 z m 6.0753,-16.67974 h 1.93912 v 3.81064 c 0.40482,-0.5671 0.86966,-1.113 1.40798,-1.63591 1.70982,-1.69423 3.46531,-2.58194 5.26381,-2.66147 v 2.08641 c -1.22349,0.0584 -2.48459,0.72699 -3.79673,2.02194 -1.84329,1.80284 -2.80166,3.96963 -2.87506,6.49946 v 10.79771 h -1.93912 z m 23.06065,-1.89737 c 3.2808,0 6.08242,1.1492 8.38967,3.43167 2.31526,2.28342 3.46532,5.04642 3.46532,8.2891 0,3.22059 -1.15006,5.97655 -3.46532,8.25993 -2.30725,2.29045 -5.10887,3.43167 -8.38967,3.43167 -3.2656,0 -6.06008,-1.14122 -8.38253,-3.43167 -2.31529,-2.28338 -3.4725,-5.03934 -3.4725,-8.25993 0,-3.24268 1.15721,-6.00568 3.4725,-8.2891 2.32245,-2.28247 5.11693,-3.43167 8.38253,-3.43167 z m 0,2.05016 c -2.7058,0 -5.02021,0.93813 -6.92976,2.82842 -1.91761,1.89031 -2.87598,4.16661 -2.87598,6.84219 0,2.66851 0.95837,4.94394 2.87598,6.82717 1.90955,1.87619 4.22396,2.82134 6.92976,2.82134 2.7058,0 5.02108,-0.94515 6.9378,-2.82134 1.90955,-1.88323 2.8679,-4.15866 2.8679,-6.82717 0,-2.67558 -0.95835,-4.95188 -2.8679,-6.84219 -1.91672,-1.89029 -4.232,-2.82842 -6.9378,-2.82842 z m 25.78886,21.06367 c -2.6467,0 -4.76226,-0.77028 -6.32521,-2.31872 -1.57099,-1.54935 -2.38157,-3.50501 -2.41827,-5.86083 v -13.03691 h 1.93911 v 12.86997 c 0,1.77371 0.6556,3.28595 1.96777,4.53671 1.29782,1.25785 2.89748,1.89031 4.81419,1.89031 1.78416,0 3.33276,-0.62448 4.63774,-1.88323 1.29783,-1.25784 1.95342,-2.77008 1.95342,-4.54379 v -12.86997 h 1.93912 v 13.03691 c -0.0439,2.35582 -0.84727,4.31148 -2.41826,5.86083 -1.57012,1.54844 -3.59788,2.31872 -6.08961,2.31872 z m 14.99609,-21.21646 h 1.93912 v 2.9379 c 0.36094,-0.47964 0.77381,-0.95219 1.23062,-1.4036 2.32246,-2.2754 5.11694,-3.40962 8.38252,-3.40962 3.28082,0 6.08244,1.14125 8.3906,3.41669 2.31436,2.28338 3.46439,5.03935 3.46439,8.28203 0,3.22059 -1.15003,5.97655 -3.46439,8.25993 -2.30816,2.29045 -5.10978,3.43167 -8.3906,3.43167 -3.26558,0 -6.06006,-1.14122 -8.38252,-3.43167 -0.45681,-0.45136 -0.86968,-0.92397 -1.23062,-1.40359 v 12.22956 h -1.93912 z m 1.93912,7.81648 v 4.00676 c 0.37525,1.83197 1.26733,3.44582 2.67623,4.8344 1.91671,1.89116 4.23111,2.83636 6.93691,2.83636 2.70581,0 5.01392,-0.9452 6.93064,-2.83636 1.9167,-1.8903 2.87506,-4.16573 2.87506,-6.83424 0,-2.67558 -0.95836,-4.95188 -2.87506,-6.84219 -1.91672,-1.89029 -4.22483,-2.82842 -6.93064,-2.82842 -2.7058,0 -5.0202,0.93813 -6.93691,2.82842 -1.4089,1.39652 -2.30098,3.00325 -2.67623,4.83527 z"
         style="fill:#f9f9f9;fill-rule:evenodd;stroke-width:0.414247"
         id="path3-3" /><path
         d="m 298.25945,488.95133 -5.29029,-14.54833 -5.29032,14.54833 z m 0.7155,1.95134 h -12.01158 l -4.83501,13.29079 h -2.08143 l 12.92223,-35.49272 12.90052,35.49272 h -2.05975 z m 19.57847,13.59435 q -3.98943,0 -6.35271,-2.3633 -2.3633,-2.36328 -2.42834,-5.96244 v -13.26912 h 1.95134 v 13.09568 q 0,2.71019 1.97303,4.61818 1.95133,1.92965 4.83499,1.92965 2.6885,0 4.63985,-1.90798 1.97303,-1.92966 1.97303,-4.63985 v -13.09568 h 1.95134 v 13.26912 q -0.0649,3.59916 -2.42834,5.96244 -2.36328,2.3633 -6.11419,2.3633 z m 18.08241,-21.59486 v -9.0629 h 1.95135 v 9.0629 h 4.33631 v 1.95135 h -4.33631 v 19.33995 h -1.95135 v -19.33995 h -4.33631 v -1.95135 z m 22.09353,-1.92965 q 4.94339,0 8.41245,3.49073 3.49073,3.49073 3.49073,8.43413 0,4.92172 -3.49073,8.41245 -3.46906,3.49073 -8.41245,3.49073 -4.92172,0 -8.41245,-3.49073 -3.49073,-3.49073 -3.49073,-8.41245 0,-4.9434 3.49073,-8.43413 3.49073,-3.49073 8.41245,-3.49073 z m 0,2.08143 q -4.07613,0 -6.95979,2.88364 -2.88364,2.88366 -2.88364,6.95979 0,4.07614 2.88364,6.95978 2.88366,2.86197 6.95979,2.86197 4.07614,0 6.95978,-2.86197 2.88366,-2.88364 2.88366,-6.95978 0,-4.07613 -2.88366,-6.95979 -2.88364,-2.88364 -6.95978,-2.88364 z"
         id="text1"
         style="-inkscape-font-specification:'Caviar Dreams';fill:#f9f9f9;stroke-width:3.93341;stroke-linecap:round"
         aria-label="Auto" /></g></g></svg>
